<svg width="29" height="16" viewBox="0 0 29 16" fill="none" xmlns="http://www.w3.org/2000/svg">
<path fill-rule="evenodd" clip-rule="evenodd" d="M14.1996 15.4369H15.8734C15.8734 15.4369 16.3786 15.3849 16.6366 15.1241C16.8749 14.8836 16.867 14.4333 16.867 14.4333C16.867 14.4333 16.8344 12.3249 17.8764 12.0139C18.9036 11.7075 20.2235 14.0517 21.6215 14.9532C22.6793 15.6356 23.4831 15.4861 23.4831 15.4861L27.2222 15.4369C27.2222 15.4369 29.1778 15.3237 28.2504 13.88C28.1743 13.7621 27.7096 12.8114 25.4703 10.859C23.1252 8.81553 23.4396 9.14604 26.2642 5.61067C27.9835 3.45862 28.6716 2.144 28.4561 1.58139C28.2514 1.04477 26.9869 1.18681 26.9869 1.18681L22.7762 1.21095C22.7762 1.21095 22.4638 1.17103 22.2325 1.30101C22.007 1.4282 21.8617 1.72529 21.8617 1.72529C21.8617 1.72529 21.1944 3.39085 20.3065 4.8076C18.4321 7.79707 17.6817 7.9549 17.3752 7.76922C16.6624 7.33658 16.8403 6.03217 16.8403 5.10469C16.8403 2.20713 17.3089 0.999276 15.9298 0.686403C15.472 0.58335 15.1349 0.514648 13.9643 0.503507C12.4625 0.488652 11.1911 0.507221 10.4714 0.838662C9.99188 1.05869 9.62212 1.54982 9.84754 1.57767C10.1253 1.61295 10.7561 1.73736 11.0903 2.16443C11.5213 2.7159 11.5065 3.95347 11.5065 3.95347C11.5065 3.95347 11.7547 7.3635 10.9271 7.78778C10.3597 8.07745 9.58159 7.48512 7.90977 4.77232C7.05359 3.38342 6.40701 1.84784 6.40701 1.84784C6.40701 1.84784 6.28244 1.56096 6.05999 1.40685C5.79009 1.22116 5.41341 1.16175 5.41341 1.16175L1.41231 1.18681C1.41231 1.18681 0.812195 1.2026 0.591724 1.4477C0.394981 1.66587 0.575906 2.11708 0.575906 2.11708C0.575906 2.11708 3.70797 8.99843 7.25429 12.466C10.507 15.6458 14.1996 15.4369 14.1996 15.4369Z" fill="white"/>
<path d="M14.1996 15.4369H15.8734C15.8734 15.4369 16.3786 15.3849 16.6366 15.1241C16.8749 14.8836 16.867 14.4333 16.867 14.4333C16.867 14.4333 16.8344 12.3249 17.8764 12.0139C18.9036 11.7075 20.2235 14.0517 21.6215 14.9532C22.6793 15.6356 23.4831 15.4861 23.4831 15.4861L27.2222 15.4369C27.2222 15.4369 29.1778 15.3237 28.2504 13.88C28.1743 13.7621 27.7096 12.8114 25.4703 10.859C23.1252 8.81553 23.4396 9.14604 26.2642 5.61067C27.9835 3.45862 28.6716 2.144 28.4561 1.58139C28.2514 1.04477 26.9869 1.18681 26.9869 1.18681L22.7762 1.21095C22.7762 1.21095 22.4638 1.17103 22.2325 1.30101C22.007 1.4282 21.8617 1.72529 21.8617 1.72529C21.8617 1.72529 21.1944 3.39085 20.3065 4.8076C18.4321 7.79707 17.6817 7.9549 17.3752 7.76922C16.6624 7.33658 16.8403 6.03217 16.8403 5.10469C16.8403 2.20713 17.3089 0.999276 15.9298 0.686403C15.472 0.58335 15.1349 0.514648 13.9643 0.503507C12.4625 0.488652 11.1911 0.507221 10.4714 0.838662C9.99188 1.05869 9.62212 1.54982 9.84754 1.57767C10.1253 1.61295 10.7561 1.73736 11.0903 2.16443C11.5213 2.7159 11.5065 3.95347 11.5065 3.95347C11.5065 3.95347 11.7547 7.3635 10.9271 7.78778C10.3597 8.07745 9.58159 7.48512 7.90977 4.77232C7.05359 3.38342 6.40701 1.84784 6.40701 1.84784C6.40701 1.84784 6.28244 1.56096 6.05999 1.40685C5.79009 1.22116 5.41341 1.16175 5.41341 1.16175L1.41231 1.18681C1.41231 1.18681 0.812195 1.2026 0.591724 1.4477C0.394981 1.66587 0.575906 2.11708 0.575906 2.11708C0.575906 2.11708 3.70797 8.99843 7.25429 12.466C10.507 15.6458 14.1996 15.4369 14.1996 15.4369" stroke="#2B2B2B"/>
</svg>
