<svg width="19" height="20" viewBox="0 0 19 20" fill="none" xmlns="http://www.w3.org/2000/svg">
<path fill-rule="evenodd" clip-rule="evenodd" d="M13.4387 4.38943C13.4387 5.02191 13.9516 5.53468 14.5843 5.53468C15.217 5.53468 15.7298 5.02191 15.7298 4.38943C15.7298 3.75691 15.217 3.24414 14.5843 3.24414C13.9516 3.24414 13.4387 3.75691 13.4387 4.38943ZM6.30505 9.48405C6.30505 7.72704 7.72978 6.30273 9.48723 6.30273C11.2447 6.30273 12.6694 7.72704 12.6694 9.48405C12.6694 11.241 11.2447 12.6653 9.48723 12.6653C7.72978 12.6653 6.30505 11.241 6.30505 9.48405ZM17.2368 1.76566C16.8527 1.38076 16.4869 1.14238 15.9745 0.942869C15.5877 0.792208 15.0064 0.613045 13.936 0.56411C12.7784 0.5112 12.4312 0.5 9.49998 0.5C6.56873 0.5 6.22152 0.5112 5.0639 0.56411C3.99358 0.613045 3.4123 0.792208 3.02547 0.942869C2.51303 1.14238 2.14735 1.38076 1.76319 1.76566C1.37904 2.15056 1.14113 2.51699 0.941966 3.0304C0.791639 3.41799 0.612825 4.00044 0.563985 5.07284C0.511178 6.23268 0.5 6.58057 0.5 9.51755C0.5 12.4546 0.511178 12.8024 0.563985 13.9623C0.612825 15.0347 0.791639 15.6171 0.941966 16.0047C1.14113 16.5181 1.37904 16.8846 1.76319 17.2695C2.14735 17.6544 2.51303 17.8927 3.02547 18.0923C3.4123 18.2429 3.99358 18.4221 5.06393 18.471C6.22136 18.5239 6.56853 18.5351 9.49998 18.5351C12.4314 18.5351 12.7786 18.5239 13.936 18.471C15.0064 18.4221 15.5877 18.2429 15.9745 18.0923C16.4869 17.8927 16.8527 17.6544 17.2368 17.2694C17.6209 16.8846 17.8589 16.5181 18.058 16.0047C18.2083 15.6171 18.3872 15.0347 18.436 13.9623C18.4888 12.8024 18.5 12.4546 18.5 9.51755C18.5 6.58057 18.4888 6.23268 18.436 5.07284C18.3872 4.00044 18.2083 3.41799 18.058 3.0304C17.8589 2.51699 17.6209 2.15056 17.2368 1.76566Z" fill="white"/>
<path d="M15.9745 0.942869L15.7931 1.40879L15.7931 1.40879L15.9745 0.942869ZM13.936 0.56411L13.9589 0.0646317L13.9589 0.0646314L13.936 0.56411ZM5.0639 0.56411L5.04107 0.0646314L5.04106 0.0646317L5.0639 0.56411ZM3.02547 0.942869L3.20687 1.4088L3.20693 1.40878L3.02547 0.942869ZM0.941966 3.0304L0.475814 2.84956L0.4758 2.84959L0.941966 3.0304ZM0.563985 5.07284L0.0645028 5.05009L0.0645025 5.0501L0.563985 5.07284ZM0.563985 13.9623L0.0645025 13.985L0.0645028 13.985L0.563985 13.9623ZM0.941966 16.0047L0.4758 16.1855L0.475814 16.1856L0.941966 16.0047ZM3.02547 18.0923L3.20688 17.6263L3.20687 17.6263L3.02547 18.0923ZM5.06393 18.471L5.0411 18.9705H5.0411L5.06393 18.471ZM13.936 18.471L13.9589 18.9705H13.9589L13.936 18.471ZM15.9745 18.0923L16.1559 18.5582L16.156 18.5582L15.9745 18.0923ZM17.2368 17.2694L16.8829 16.9162L16.8829 16.9162L17.2368 17.2694ZM18.058 16.0047L18.5242 16.1855V16.1855L18.058 16.0047ZM18.436 13.9623L18.9355 13.985V13.985L18.436 13.9623ZM18.436 5.07284L18.9355 5.0501V5.05009L18.436 5.07284ZM18.058 3.0304L18.5242 2.84959V2.84959L18.058 3.0304ZM14.5843 5.03468C14.2276 5.03468 13.9387 4.74565 13.9387 4.38943H12.9387C12.9387 5.29817 13.6756 6.03468 14.5843 6.03468V5.03468ZM15.2298 4.38943C15.2298 4.74565 14.9409 5.03468 14.5843 5.03468V6.03468C15.493 6.03468 16.2298 5.29817 16.2298 4.38943H15.2298ZM14.5843 3.74414C14.9409 3.74414 15.2298 4.03315 15.2298 4.38943H16.2298C16.2298 3.48066 15.493 2.74414 14.5843 2.74414V3.74414ZM13.9387 4.38943C13.9387 4.03316 14.2276 3.74414 14.5843 3.74414V2.74414C13.6756 2.74414 12.9387 3.48066 12.9387 4.38943H13.9387ZM9.48723 5.80273C7.45377 5.80273 5.80505 7.45077 5.80505 9.48405H6.80505C6.80505 8.00331 8.00579 6.80273 9.48723 6.80273V5.80273ZM13.1694 9.48405C13.1694 7.45077 11.5207 5.80273 9.48723 5.80273V6.80273C10.9687 6.80273 12.1694 8.00331 12.1694 9.48405H13.1694ZM9.48723 13.1653C11.5207 13.1653 13.1694 11.5173 13.1694 9.48405H12.1694C12.1694 10.9647 10.9687 12.1653 9.48723 12.1653V13.1653ZM5.80505 9.48405C5.80505 11.5173 7.45377 13.1653 9.48723 13.1653V12.1653C8.00579 12.1653 6.80505 10.9647 6.80505 9.48405H5.80505ZM17.5907 1.41247C17.1569 0.977844 16.7323 0.701354 16.156 0.476943L15.7931 1.40879C16.2416 1.58341 16.5484 1.78367 16.8828 2.11885L17.5907 1.41247ZM16.156 0.476951C15.7192 0.306872 15.0844 0.116092 13.9589 0.0646317L13.9132 1.06359C14.9283 1.11 15.4561 1.27754 15.7931 1.40879L16.156 0.476951ZM13.9589 0.0646314C12.7897 0.0111916 12.4334 0 9.49998 0V1C12.4291 1 12.7672 1.01121 13.9132 1.06359L13.9589 0.0646314ZM9.49998 0C6.56658 0 6.21028 0.0111916 5.04107 0.0646314L5.08672 1.06359C6.23275 1.01121 6.57087 1 9.49998 1V0ZM5.04106 0.0646317C3.91552 0.116092 3.28072 0.306871 2.84401 0.476958L3.20693 1.40878C3.54388 1.27754 4.07163 1.11 5.08673 1.06359L5.04106 0.0646317ZM2.84406 0.476938C2.26766 0.701356 1.84305 0.977849 1.4093 1.41245L2.11709 2.11887C2.45164 1.78367 2.75839 1.58341 3.20687 1.4088L2.84406 0.476938ZM1.4093 1.41245C0.975537 1.84706 0.699714 2.2724 0.475814 2.84956L1.40812 3.21123C1.58255 2.76159 1.78255 2.45406 2.11709 2.11887L1.4093 1.41245ZM0.4758 2.84959C0.306187 3.28691 0.115848 3.92269 0.0645028 5.05009L1.06347 5.09559C1.1098 4.07818 1.27709 3.54906 1.40813 3.2112L0.4758 2.84959ZM0.0645025 5.0501C0.0111698 6.22149 0 6.57843 0 9.51755H1C1 6.58271 1.01119 6.24387 1.06347 5.09558L0.0645025 5.0501ZM0 9.51755C0 12.4567 0.0111699 12.8136 0.0645025 13.985L1.06347 13.9395C1.01119 12.7912 1 12.4524 1 9.51755H0ZM0.0645028 13.985C0.115848 15.1124 0.306187 15.7482 0.4758 16.1855L1.40813 15.8239C1.27709 15.4861 1.1098 14.9569 1.06347 13.9395L0.0645028 13.985ZM0.475814 16.1856C0.699714 16.7627 0.975537 17.1881 1.4093 17.6227L2.11709 16.9163C1.78255 16.5811 1.58255 16.2735 1.40812 15.8239L0.475814 16.1856ZM1.4093 17.6227C1.84305 18.0573 2.26766 18.3338 2.84406 18.5582L3.20687 17.6263C2.75839 17.4517 2.45164 17.2515 2.11709 16.9163L1.4093 17.6227ZM2.84405 18.5582C3.28072 18.7282 3.9155 18.919 5.0411 18.9705L5.08677 17.9715C4.07165 17.9251 3.54389 17.7576 3.20688 17.6263L2.84405 18.5582ZM5.0411 18.9705C6.21012 19.0239 6.56638 19.0351 9.49998 19.0351V18.0351C6.57067 18.0351 6.23259 18.0239 5.08677 17.9715L5.0411 18.9705ZM9.49998 19.0351C12.4336 19.0351 12.7898 19.0239 13.9589 18.9705L13.9132 17.9715C12.7674 18.0239 12.4293 18.0351 9.49998 18.0351V19.0351ZM13.9589 18.9705C15.0845 18.919 15.7192 18.7282 16.1559 18.5582L15.7931 17.6263C15.4561 17.7576 14.9283 17.9251 13.9132 17.9715L13.9589 18.9705ZM16.156 18.5582C16.7323 18.3338 17.157 18.0573 17.5907 17.6226L16.8829 16.9162C16.5484 17.2515 16.2416 17.4517 15.7931 17.6263L16.156 18.5582ZM17.5907 17.6226C18.0244 17.1881 18.3003 16.7627 18.5242 16.1855L17.5918 15.8239C17.4174 16.2735 17.2174 16.5811 16.8829 16.9162L17.5907 17.6226ZM18.5242 16.1855C18.6938 15.7482 18.8842 15.1125 18.9355 13.985L17.9365 13.9395C17.8902 14.9569 17.7229 15.4861 17.5918 15.8239L18.5242 16.1855ZM18.9355 13.985C18.9888 12.8136 19 12.4567 19 9.51755H18C18 12.4524 17.9888 12.7912 17.9365 13.9395L18.9355 13.985ZM19 9.51755C19 6.57843 18.9888 6.22149 18.9355 5.0501L17.9365 5.09558C17.9888 6.24387 18 6.58271 18 9.51755H19ZM18.9355 5.05009C18.8842 3.92267 18.6938 3.28689 18.5242 2.84959L17.5918 3.2112C17.7229 3.54908 17.8902 4.0782 17.9365 5.09559L18.9355 5.05009ZM18.5242 2.84959C18.3003 2.27239 18.0244 1.84704 17.5907 1.41245L16.8829 2.11887C17.2174 2.45408 17.4174 2.7616 17.5918 3.2112L18.5242 2.84959Z" fill="#2B2B2B"/>
</svg>
