<svg width="15" height="22" viewBox="0 0 15 22" fill="none" xmlns="http://www.w3.org/2000/svg">
<path fill-rule="evenodd" clip-rule="evenodd" d="M12.3791 4.45557C13.1129 7.45232 10.831 9.87041 8.34277 10.3938C1.7387 11.7882 -1.11157 2.54481 5.93513 0.68327C9.16572 -0.168637 11.8044 2.11785 12.3791 4.45557ZM9.70683 4.91885C9.3813 3.77963 8.1039 2.73885 6.51063 3.15878C3.08343 4.05288 4.5134 8.73134 7.85142 7.8945C9.02785 7.60015 10.1226 6.37955 9.70683 4.91885ZM3.57201 11.2397C5.78524 12.4162 8.68748 12.3919 10.873 11.1851C10.989 11.1217 11.1 11.048 11.2122 10.9735C11.5536 10.7468 11.9058 10.513 12.4394 10.5388C13.3931 10.5883 15.3206 12.1122 11.9298 13.7027C10.6949 14.2807 10.2415 14.3674 9.6506 14.4805C9.35049 14.5379 9.01494 14.6021 8.52354 14.7409C8.70882 15.0802 10.2083 16.4114 11.2886 17.3706C11.6744 17.7131 12.0068 18.0081 12.2067 18.1936C13.4707 19.365 12.395 20.696 11.099 20.5627C10.276 20.4769 7.69275 17.928 7.22418 17.4039C6.7558 17.6221 6.12823 18.2384 5.48594 18.8691C4.68363 19.657 3.85836 20.4674 3.29175 20.5526C1.94475 20.7556 0.821517 19.3297 2.19067 18.0977L5.83066 14.7641C5.63715 14.6685 5.20678 14.584 4.78731 14.5017C4.49364 14.4441 4.20531 14.3875 4.00734 14.3289C-1.29867 12.7464 0.592216 10.4035 2.11202 10.5439C2.51128 10.5815 2.88105 10.8147 3.21532 11.0256C3.33919 11.1037 3.45819 11.1788 3.57201 11.2397Z" fill="white"/>
<path d="M8.34277 10.3938L8.23985 9.90451L8.23948 9.90459L8.34277 10.3938ZM12.3791 4.45557L12.8648 4.33666L12.8647 4.33619L12.3791 4.45557ZM5.93513 0.68327L5.80764 0.199797L5.80743 0.199854L5.93513 0.68327ZM6.51063 3.15878L6.63684 3.64259L6.63806 3.64227L6.51063 3.15878ZM9.70683 4.91885L10.1877 4.78196L10.1876 4.78148L9.70683 4.91885ZM7.85142 7.8945L7.73006 7.40945L7.72984 7.40951L7.85142 7.8945ZM10.873 11.1851L10.6329 10.7466L10.6313 10.7474L10.873 11.1851ZM3.57201 11.2397L3.33614 11.6805L3.33732 11.6812L3.57201 11.2397ZM11.2122 10.9735L10.9357 10.5569L10.9356 10.5569L11.2122 10.9735ZM12.4394 10.5388L12.4653 10.0395L12.4635 10.0394L12.4394 10.5388ZM11.9298 13.7027L12.1418 14.1556L12.1421 14.1554L11.9298 13.7027ZM9.6506 14.4805L9.74455 14.9716L9.74456 14.9716L9.6506 14.4805ZM8.52354 14.7409L8.38765 14.2597L7.78419 14.4301L8.0847 14.9805L8.52354 14.7409ZM11.2886 17.3706L11.6206 16.9966L11.6206 16.9966L11.2886 17.3706ZM12.2067 18.1936L11.8667 18.5602L11.8668 18.5603L12.2067 18.1936ZM11.099 20.5627L11.0471 21.06L11.0479 21.0601L11.099 20.5627ZM7.22418 17.4039L7.59694 17.0706L7.34952 16.7939L7.01303 16.9507L7.22418 17.4039ZM5.48594 18.8691L5.83627 19.2259L5.48594 18.8691ZM3.29175 20.5526L3.21736 20.0582L3.21724 20.0582L3.29175 20.5526ZM2.19067 18.0977L2.52513 18.4694L2.52836 18.4664L2.19067 18.0977ZM5.83066 14.7641L6.16835 15.1328L6.70705 14.6395L6.05218 14.3159L5.83066 14.7641ZM4.78731 14.5017L4.8836 14.0111L4.78731 14.5017ZM4.00734 14.3289L3.86444 14.808L3.86535 14.8083L4.00734 14.3289ZM2.11202 10.5439L2.15887 10.0461L2.15801 10.046L2.11202 10.5439ZM3.21532 11.0256L2.94855 11.4485L2.94856 11.4485L3.21532 11.0256ZM8.4457 10.8831C11.1268 10.3191 13.6845 7.68429 12.8648 4.33666L11.8935 4.57449C12.5413 7.22035 10.5352 9.42168 8.23985 9.90451L8.4457 10.8831ZM5.80743 0.199854C3.93359 0.694868 2.66937 1.69686 1.97369 2.9374C1.28163 4.1715 1.17821 5.59582 1.53811 6.89317C2.2594 9.49332 4.86251 11.6397 8.44607 10.883L8.23948 9.90459C5.21896 10.5424 3.0949 8.76419 2.50172 6.62586C2.20437 5.55397 2.29689 4.40555 2.84591 3.42653C3.39131 2.45396 4.41332 1.60244 6.06284 1.16669L5.80743 0.199854ZM12.8647 4.33619C12.2354 1.77669 9.35528 -0.735715 5.80764 0.199797L6.06263 1.16674C8.97617 0.398441 11.3733 2.45901 11.8936 4.57495L12.8647 4.33619ZM6.63806 3.64227C7.93112 3.30147 8.96431 4.14017 9.22607 5.05623L10.1876 4.78148C9.79829 3.41908 8.27668 2.17624 6.3832 2.67529L6.63806 3.64227ZM7.72984 7.40951C6.34535 7.7566 5.40162 6.97877 5.12372 6.03457C4.98324 5.55726 5.01889 5.05233 5.24547 4.62998C5.46767 4.21578 5.89801 3.83534 6.63684 3.64259L6.38441 2.67497C5.40965 2.92927 4.73353 3.46892 4.36426 4.15725C3.99937 4.83743 3.95854 5.61745 4.16441 6.31691C4.5792 7.72625 6.01947 8.86924 7.97301 8.37949L7.72984 7.40951ZM9.22593 5.05574C9.54217 6.16672 8.7183 7.16219 7.73006 7.40945L7.97279 8.37955C9.33739 8.03811 10.7031 6.59238 10.1877 4.78196L9.22593 5.05574ZM10.6313 10.7474C8.5939 11.8724 5.87086 11.8954 3.80669 10.7982L3.33732 11.6812C5.69962 12.9369 8.78106 12.9114 11.1147 11.6228L10.6313 10.7474ZM10.9356 10.5569C10.8203 10.6335 10.727 10.6951 10.6329 10.7466L11.1131 11.6237C11.2509 11.5483 11.3797 11.4624 11.4888 11.39L10.9356 10.5569ZM12.4635 10.0394C11.75 10.0049 11.2738 10.3324 10.9357 10.5569L11.4887 11.39C11.8333 11.1613 12.0616 11.0211 12.4152 11.0382L12.4635 10.0394ZM12.1421 14.1554C13.0245 13.7415 13.6208 13.3058 13.971 12.8483C14.3357 12.372 14.434 11.8664 14.2924 11.3981C14.1593 10.9583 13.8381 10.6291 13.5164 10.4145C13.1953 10.2003 12.8106 10.0574 12.4653 10.0395L12.4135 11.0382C12.545 11.045 12.7589 11.1112 12.9615 11.2463C13.1634 11.3811 13.291 11.5415 13.3352 11.6876C13.3708 11.8053 13.3748 11.982 13.177 12.2404C12.9648 12.5175 12.5305 12.8687 11.7175 13.2501L12.1421 14.1554ZM9.74456 14.9716C10.3714 14.8516 10.8652 14.7531 12.1418 14.1556L11.7179 13.2499C10.5247 13.8083 10.1115 13.8832 9.55665 13.9894L9.74456 14.9716ZM8.65944 15.2221C9.12957 15.0893 9.44811 15.0283 9.74455 14.9716L9.55665 13.9894C9.25288 14.0475 8.9003 14.1149 8.38765 14.2597L8.65944 15.2221ZM11.6206 16.9966C11.0794 16.5161 10.4389 15.9475 9.91071 15.4569C9.64634 15.2114 9.41448 14.9894 9.23917 14.8103C9.15135 14.7206 9.0815 14.6454 9.03034 14.5859C8.9731 14.5194 8.95881 14.4947 8.96239 14.5013L8.0847 14.9805C8.13459 15.0719 8.2077 15.163 8.27215 15.238C8.34267 15.32 8.4288 15.412 8.52449 15.5098C8.71621 15.7057 8.96148 15.9401 9.23017 16.1896C9.76815 16.6893 10.4176 17.2658 10.9567 17.7445L11.6206 16.9966ZM12.5468 17.827C12.3418 17.6369 12.0042 17.3372 11.6206 16.9966L10.9567 17.7445C11.3447 18.0889 11.6718 18.3794 11.8667 18.5602L12.5468 17.827ZM11.0479 21.0601C11.8689 21.1446 12.6609 20.77 13.0435 20.1215C13.2385 19.791 13.3214 19.3948 13.2397 18.98C13.1585 18.5681 12.9229 18.1757 12.5466 17.8269L11.8668 18.5603C12.1225 18.7972 12.2264 19.0105 12.2586 19.1734C12.2901 19.3335 12.2601 19.4814 12.1822 19.6134C12.019 19.8899 11.6252 20.1142 11.1502 20.0654L11.0479 21.0601ZM6.85143 17.7371C7.10211 18.0175 7.87992 18.7997 8.69755 19.5223C9.10714 19.8843 9.53687 20.2405 9.92285 20.5144C10.1156 20.6512 10.3057 20.7735 10.483 20.8665C10.6501 20.9543 10.8483 21.0393 11.0471 21.06L11.1509 20.0654C11.1531 20.0657 11.1366 20.0639 11.0969 20.0493C11.0587 20.0354 11.0092 20.0134 10.9479 19.9812C10.8245 19.9164 10.6742 19.8214 10.5016 19.6989C10.1571 19.4544 9.75746 19.1245 9.35979 18.773C8.5629 18.0687 7.81482 17.3144 7.59694 17.0706L6.85143 17.7371ZM5.83627 19.2259C6.15995 18.908 6.46712 18.6066 6.75055 18.3572C7.04125 18.1014 7.2702 17.934 7.43533 17.8571L7.01303 16.9507C6.70978 17.0919 6.39075 17.3418 6.09 17.6064C5.78198 17.8774 5.45422 18.1995 5.13561 18.5124L5.83627 19.2259ZM3.36614 21.0471C3.59784 21.0122 3.81932 20.9107 4.01529 20.7948C4.21571 20.6763 4.4193 20.5247 4.61887 20.3599C5.0162 20.0317 5.43935 19.6156 5.83627 19.2259L5.13561 18.5124C4.73022 18.9105 4.33958 19.2935 3.98205 19.5889C3.80418 19.7358 3.64507 19.852 3.50632 19.934C3.36312 20.0187 3.26897 20.0504 3.21736 20.0582L3.36614 21.0471ZM1.85621 17.726C1.45337 18.0885 1.20013 18.4964 1.10714 18.9231C1.01349 19.3529 1.09081 19.7664 1.28885 20.1119C1.67864 20.792 2.5078 21.1764 3.36625 21.0471L3.21724 20.0582C2.72871 20.1318 2.32275 19.9048 2.15645 19.6147C2.07646 19.4751 2.04549 19.3137 2.08422 19.136C2.1236 18.9553 2.24339 18.7229 2.52512 18.4693L1.85621 17.726ZM5.49297 14.3954L1.85297 17.7289L2.52836 18.4664L6.16835 15.1328L5.49297 14.3954ZM4.69103 14.9923C4.90317 15.034 5.10584 15.0738 5.27917 15.1146C5.46471 15.1583 5.56942 15.1927 5.60913 15.2124L6.05218 14.3159C5.89838 14.2398 5.69115 14.1842 5.50827 14.1412C5.31317 14.0953 5.09092 14.0517 4.8836 14.0111L4.69103 14.9923ZM3.86535 14.8083C4.09129 14.8752 4.40712 14.9366 4.69103 14.9923L4.8836 14.0111C4.58016 13.9515 4.31933 13.8998 4.14933 13.8494L3.86535 14.8083ZM2.15801 10.046C1.64914 9.999 1.12619 10.1579 0.726266 10.4495C0.324233 10.7426 -0.00042057 11.2087 3.8743e-07 11.7907C0.000423253 12.3752 0.328306 12.9415 0.944971 13.4392C1.56017 13.9357 2.50504 14.4026 3.86444 14.808L4.15024 13.8497C2.85663 13.4639 2.04811 13.0445 1.57303 12.661C1.09942 12.2788 1.00013 11.9714 1 11.7899C0.999867 11.606 1.10127 11.4137 1.31541 11.2575C1.53166 11.0999 1.815 11.0186 2.06604 11.0418L2.15801 10.046ZM3.48208 10.6027C3.17135 10.4067 2.69862 10.0969 2.15887 10.0461L2.06517 11.0417C2.32393 11.066 2.59074 11.2228 2.94855 11.4485L3.48208 10.6027ZM3.80787 10.7988C3.71283 10.748 3.60961 10.6831 3.48208 10.6027L2.94856 11.4485C3.06878 11.5243 3.20355 11.6096 3.33614 11.6805L3.80787 10.7988Z" fill="#2B2B2B"/>
</svg>
